<?xml version="1.0" encoding="UTF-8"?>
<svg width="1200pt" height="1200pt" version="1.1" viewBox="0 0 1200 1200" xmlns="http://www.w3.org/2000/svg">
 <g>
  <path d="m625.01 175h349.99v250h-349.99z"/>
  <path d="m1082.9 117.16c-156.19-156.2-409.52-156.2-565.68 0-2.5195 2.5195-4.6445 5.2695-7.0781 7.8477-73.176 77.102-110.09 175.95-110.09 275-78.742 0-157.32 23.34-225 69.504-20.352 13.895-39.793 29.617-57.852 47.652-156.21 156.23-156.21 409.46 0 565.69 156.19 156.17 409.51 156.23 565.7 0 10.488-10.5 20.172-21.527 29.258-32.844 58.5-72.863 87.863-161.43 87.887-250.01 25.129 0 50.242-2.3984 75-7.1289 76.152-14.449 148.91-51.07 207.84-110.02 156.2-156.25 156.2-409.52 0.011719-565.7zm-794.09 457.85c42.047 0 76.273 34.188 76.273 76.332 0 42.133-34.246 76.273-76.273 76.273-42.266 0-76.246-34.152-76.246-76.273-0.015626-42.156 33.98-76.332 76.246-76.332zm457.58 208.84-112.61 112.6c2.3398 4.8711 3.7578 10.285 3.7578 16.055 0 17.316-11.773 31.738-27.73 36.047l-22.262 1.4531h-75-12.504c-20.711 0-46.094-30.562-46.094-30.562l-41.41-41.398v171.97h-274.99v-199.99c0-50.016 50.438-100.01 99.996-100.01h137.5c16.703 0 34.766 3.8047 47.617 17.09 21.191 21.926 89.891 107.9 89.891 107.9l87.492-0.003906c5.7969 0 11.184 1.4297 16.066 3.7695l112.6-112.61c4.8828-4.8828 12.793-4.8828 17.688 0 4.8711 4.8984 4.8711 12.805 0 17.691zm278.65-308.84c0 13.812-11.172 24.996-24.996 24.996h-150v50.004c0 27.637 47.352 50.004 75 50.004h49.992c13.836 0 25.008 11.184 25.008 25.008 0 13.801-11.172 24.984-25.008 24.984l-175-0.003906h-175c-13.824 0-25.008-11.184-25.008-24.984 0-13.82 11.184-25.004 25.008-25.004h49.992c27.648 0 75-22.367 75-50.004v-50.004l-150-0.003906c-13.812 0-24.996-11.184-24.996-24.996v-324.99c0-13.812 11.184-24.996 24.996-24.996h400.01c13.824 0 24.996 11.184 24.996 24.996z"/>
 </g>
</svg>
